<?xml version="1.0" encoding="UTF-8" standalone="no"?>
<!-- Created with Inkscape (http://www.inkscape.org/) -->

<svg
   xmlns:dc="http://purl.org/dc/elements/1.1/"
   xmlns:cc="http://creativecommons.org/ns#"
   xmlns:rdf="http://www.w3.org/1999/02/22-rdf-syntax-ns#"
   xmlns:svg="http://www.w3.org/2000/svg"
   xmlns="http://www.w3.org/2000/svg"
   xmlns:sodipodi="http://sodipodi.sourceforge.net/DTD/sodipodi-0.dtd"
   xmlns:inkscape="http://www.inkscape.org/namespaces/inkscape"
   width="96"
   height="96"
   viewBox="0 0 96 96"
   id="svg4238"
   version="1.1"
   inkscape:version="0.91 r13725"
   sodipodi:docname="Logo.svg">
  <defs
     id="defs4240" />
  <sodipodi:namedview
     id="base"
     pagecolor="#ffffff"
     bordercolor="#666666"
     borderopacity="1.0"
     inkscape:pageopacity="0.0"
     inkscape:pageshadow="2"
     inkscape:zoom="2.8"
     inkscape:cx="75.284562"
     inkscape:cy="33.14682"
     inkscape:document-units="px"
     inkscape:current-layer="layer1"
     showgrid="false"
     units="px"
     inkscape:snap-bbox="true"
     inkscape:bbox-paths="true"
     inkscape:snap-bbox-midpoints="true"
     inkscape:bbox-nodes="true"
     inkscape:snap-bbox-edge-midpoints="true"
     inkscape:window-width="1243"
     inkscape:window-height="753"
     inkscape:window-x="813"
     inkscape:window-y="468"
     inkscape:window-maximized="0" />
  <metadata
     id="metadata4243">
    <rdf:RDF>
      <cc:Work
         rdf:about="">
        <dc:format>image/svg+xml</dc:format>
        <dc:type
           rdf:resource="http://purl.org/dc/dcmitype/StillImage" />
        <dc:title></dc:title>
      </cc:Work>
    </rdf:RDF>
  </metadata>
  <g
     inkscape:label="Layer 1"
     inkscape:groupmode="layer"
     id="layer1"
     transform="translate(0,-956.36216)">
    <g
       style="font-style:normal;font-variant:normal;font-weight:normal;font-stretch:normal;font-size:38.78530884px;line-height:125%;font-family:Sans;-inkscape-font-specification:Sans;letter-spacing:0px;word-spacing:0px;fill:#000000;fill-opacity:1;stroke:none;stroke-width:1px;stroke-linecap:butt;stroke-linejoin:miter;stroke-opacity:1"
       id="text4136-7-8-0">
      <path
         d="m 82.754335,978.47565 q 0,2.6625 -1.1625,4.7625 -1.125,2.1 -3.4125,3.3 -2.2875,1.2 -5.5875,1.2 -4.95,0 -7.5375,-2.5125 -2.5875,-2.5125 -2.5875,-6.75 l 0,-17.3625 6.15,0 0,17.1 q 0,2.5125 0.9375,3.75 0.975,1.2 3.0375,1.2 2.1,0 3.0375,-1.2 0.975,-1.2375 0.975,-3.75 l 0,-17.1 6.15,0 0,17.3625 z"
         style="font-style:normal;font-variant:normal;font-weight:bold;font-stretch:normal;font-size:37.5px;font-family:'Fira Sans';-inkscape-font-specification:'Fira Sans Bold';fill:#333333;fill-opacity:1"
         id="path4144" />
      <path
         d="m 93.381483,987.10065 -6.15,0 0,-25.9875 6.15,0 0,25.9875 z"
         style="font-style:normal;font-variant:normal;font-weight:bold;font-stretch:normal;font-size:37.5px;font-family:'Fira Sans';-inkscape-font-specification:'Fira Sans Bold';fill:#333333;fill-opacity:1"
         id="path4146" />
    </g>
    <g
       style="font-style:normal;font-weight:normal;font-size:38.78530884px;line-height:125%;font-family:Sans;letter-spacing:0px;word-spacing:0px;fill:#000000;fill-opacity:1;stroke:none;stroke-width:1px;stroke-linecap:butt;stroke-linejoin:miter;stroke-opacity:1"
       id="text4136-2-3-5-2">
      <path
         d="m 28.305755,1012.6046 -4.0125,0 0,10.95 -3.5625,0 0,-25.83747 6.7875,0 q 4.8375,0 7.3125,1.8375 2.5125,1.83747 2.5125,5.47497 0,2.7 -1.3875,4.3875 -1.3875,1.6875 -4.2,2.55 l 6.975,11.5875 -4.2375,0 -6.1875,-10.95 z m -0.4125,-2.7375 q 2.8125,0 4.2375,-1.125 1.425,-1.1625 1.425,-3.7125 0,-2.4 -1.4625,-3.45 -1.425,-1.0875 -4.6125,-1.0875 l -3.1875,0 0,9.375 3.6,0 z"
         style="font-style:normal;font-variant:normal;font-weight:normal;font-stretch:normal;font-size:37.5px;font-family:'Fira Sans';-inkscape-font-specification:'Fira Sans';fill:#333333;fill-opacity:1"
         id="path4139" />
      <path
         d="m 57.807122,1013.0921 q 0,0.8625 -0.075,1.7625 l -12.6,0 q 0.225,3.2625 1.65,4.8 1.425,1.5375 3.675,1.5375 1.425,0 2.625,-0.4125 1.2,-0.4125 2.5125,-1.3125 l 1.5,2.0625 q -3.15,2.475 -6.9,2.475 -4.125,0 -6.45,-2.7 -2.2875,-2.7 -2.2875,-7.425 0,-3.075 0.975,-5.4375 1.0125,-2.4 2.85,-3.75 1.875,-1.35 4.3875,-1.35 3.9375,0 6.0375,2.5875 2.1,2.5875 2.1,7.1625 z m -3.4125,-1.0125 q 0,-2.925 -1.1625,-4.4625 -1.1625,-1.5375 -3.4875,-1.5375 -4.2375,0 -4.6125,6.225 l 9.2625,0 0,-0.225 z"
         style="font-style:normal;font-variant:normal;font-weight:normal;font-stretch:normal;font-size:37.5px;font-family:'Fira Sans';-inkscape-font-specification:'Fira Sans';fill:#333333;fill-opacity:1"
         id="path4141" />
    </g>
    <path
       inkscape:connector-curvature="0"
       style="fill:#9cc26f;fill-opacity:1;fill-rule:evenodd;stroke:none;stroke-width:1px;stroke-linecap:butt;stroke-linejoin:miter;stroke-opacity:1"
       d="m 39.268939,974.62048 a 36.240727,36.240727 0 0 0 -18.097514,4.89494 l 5.027154,8.70705 a 26.17378,26.17378 0 0 1 13.07036,-3.53522 26.17378,26.17378 0 0 1 13.075879,3.52738 l 5.028705,-8.71019 a 36.240727,36.240727 0 0 0 -18.104584,-4.88396 z m -31.3574351,18.1368 a 36.240727,36.240727 0 0 0 -4.8832027,18.10452 36.240727,36.240727 0 0 0 4.8942178,18.0975 l 8.707036,-5.027 a 26.17378,26.17378 0 0 1 -3.534426,-13.0713 26.17378,26.17378 0 0 1 3.526558,-13.0742 l -8.7101831,-5.02952 z m 62.7046291,0.006 -8.708564,5.028 a 26.17378,26.17378 0 0 1 3.535181,13.06952 26.17378,26.17378 0 0 1 -3.527313,13.0758 l 8.710936,5.0288 a 36.240727,36.240727 0 0 0 4.883204,-18.1038 36.240727,36.240727 0 0 0 -4.893444,-18.09832 z M 52.3393,1033.4994 a 26.17378,26.17378 0 0 1 -13.070361,3.5352 26.17378,26.17378 0 0 1 -13.075081,-3.5266 l -5.028682,8.7101 a 36.240727,36.240727 0 0 0 18.103763,4.8832 36.240727,36.240727 0 0 0 18.098289,-4.8943 l -5.027928,-8.7076 z"
       id="path4140-7-6" />
  </g>
</svg>
